<svg xmlns="http://www.w3.org/2000/svg" version="1.1" xmlns:xlink="http://www.w3.org/1999/xlink" xmlns:svgjs="http://svgjs.dev/svgjs" width="2000" height="1247" viewBox="0 0 2000 1247"><g transform="matrix(1,0,0,1,-1.2121212121212466,0.504858299595071)"><svg viewBox="0 0 396 247" data-background-color="#162836" preserveAspectRatio="xMidYMid meet" height="1247" width="2000" xmlns="http://www.w3.org/2000/svg" xmlns:xlink="http://www.w3.org/1999/xlink"><g id="tight-bounds" transform="matrix(1,0,0,1,0.2400000000000091,-0.09999999999999432)"><svg viewBox="0 0 395.52 247.2" height="247.2" width="395.52"><g><svg></svg></g><g><svg viewBox="0 0 395.52 247.2" height="247.2" width="395.52"><g transform="matrix(1,0,0,1,75.54432,92.13779613852283)"><svg viewBox="0 0 244.43135999999998 62.92440772295433" height="62.92440772295433" width="244.43135999999998"><g><svg viewBox="0 0 244.43135999999998 62.92440772295433" height="62.92440772295433" width="244.43135999999998"><g><svg viewBox="0 0 244.43135999999998 62.92440772295433" height="62.92440772295433" width="244.43135999999998"><g><svg viewBox="0 0 244.43135999999998 62.92440772295433" height="62.92440772295433" width="244.43135999999998"><g id="textblocktransform"><svg viewBox="0 0 244.43135999999998 62.92440772295433" height="62.92440772295433" width="244.43135999999998" id="textblock"><g><svg viewBox="0 0 244.43135999999998 62.92440772295433" height="62.92440772295433" width="244.43135999999998"><g transform="matrix(1,0,0,1,0,0)"><svg width="244.43135999999998" viewBox="2.29 -40.5 159.32000000000002 41.01" height="62.92440772295433" data-palette-color="#cf7650"><path d="M2.29-14.28L2.29-14.28Q2.29-17.72 3.59-20.5 4.88-23.27 7.17-25.23 9.45-27.2 12.59-28.26 15.72-29.32 19.38-29.32L19.38-29.32Q20.95-29.32 22.47-29.13 24-28.93 25.4-28.59 26.81-28.25 28.04-27.77 29.27-27.29 30.22-26.73L30.22-26.73 30.22-40.5 37.45-40.5 37.45 0 30.22 0 30.22-2.71Q29.27-2.05 27.98-1.46 26.68-0.88 25.2-0.44 23.71 0 22.11 0.26 20.51 0.51 18.95 0.51L18.95 0.51Q15.28 0.51 12.22-0.56 9.16-1.64 6.96-3.59 4.76-5.54 3.53-8.26 2.29-10.99 2.29-14.28ZM9.89-14.28L9.89-14.28Q9.89-12.55 10.58-11.01 11.28-9.47 12.59-8.31 13.89-7.15 15.73-6.48 17.58-5.81 19.87-5.81L19.87-5.81Q21.34-5.81 22.8-6.09 24.27-6.37 25.62-6.88 26.98-7.4 28.16-8.13 29.35-8.86 30.22-9.77L30.22-9.77 30.22-19.75Q29.13-20.63 27.91-21.24 26.68-21.85 25.42-22.24 24.15-22.63 22.85-22.81 21.56-23 20.34-23L20.34-23Q17.85-23 15.91-22.33 13.96-21.66 12.63-20.48 11.3-19.31 10.6-17.72 9.89-16.14 9.89-14.28ZM46.29-13.75L46.29-28.83 53.49-28.83 53.49-14.77Q53.49-12.77 53.93-11.12 54.37-9.47 55.43-8.3 56.49-7.13 58.26-6.48 60.03-5.83 62.67-5.83L62.67-5.83Q63.91-5.83 65.2-6.1 66.48-6.37 67.65-6.85 68.82-7.32 69.83-7.98 70.85-8.64 71.58-9.42L71.58-9.42 71.58-28.83 78.81-28.83 78.81 0 71.58 0 71.58-2.47Q68.92-0.88 66.23-0.2 63.55 0.49 61.13 0.49L61.13 0.49Q57.18 0.49 54.36-0.46 51.54-1.42 49.74-3.23 47.95-5.05 47.12-7.7 46.29-10.35 46.29-13.75L46.29-13.75ZM87.79 0L87.79-40.5 95.01-40.5 95.01-26.1Q95.97-26.76 97.26-27.34 98.55-27.93 100.04-28.37 101.53-28.81 103.12-29.06 104.71-29.32 106.29-29.32L106.29-29.32Q109.96-29.32 113.02-28.25 116.08-27.17 118.28-25.22 120.48-23.27 121.71-20.54 122.94-17.82 122.94-14.53L122.94-14.53Q122.94-11.08 121.65-8.31 120.36-5.54 118.07-3.58 115.79-1.61 112.65-0.55 109.52 0.51 105.85 0.51L105.85 0.51Q104.29 0.51 102.77 0.32 101.24 0.12 99.84-0.22 98.43-0.56 97.2-1.04 95.97-1.51 95.01-2.08L95.01-2.08 95.01 0 87.79 0ZM95.01-19.04L95.01-9.06Q96.11-8.18 97.33-7.57 98.55-6.96 99.82-6.57 101.09-6.18 102.39-5.99 103.68-5.81 104.9-5.81L104.9-5.81Q107.39-5.81 109.33-6.48 111.27-7.15 112.6-8.33 113.94-9.5 114.64-11.08 115.35-12.67 115.35-14.53L115.35-14.53Q115.35-16.26 114.66-17.8 113.96-19.34 112.65-20.5 111.35-21.66 109.5-22.33 107.66-23 105.37-23L105.37-23Q103.9-23 102.44-22.72 100.97-22.44 99.62-21.92 98.26-21.41 97.08-20.68 95.89-19.95 95.01-19.04L95.01-19.04ZM128.26-9.08L128.26-9.08Q128.26-11.16 129.17-12.87 130.07-14.58 131.88-15.81 133.68-17.04 136.38-17.71 139.08-18.38 142.67-18.38L142.67-18.38Q145.33-18.38 148.27-17.99 151.21-17.6 154.34-16.8L154.34-16.8Q154.22-18.16 153.51-19.32 152.8-20.48 151.54-21.33 150.29-22.17 148.52-22.63 146.75-23.1 144.5-23.1L144.5-23.1Q143.28-23.1 141.81-22.95 140.35-22.8 138.79-22.51 137.22-22.22 135.7-21.78 134.17-21.34 132.85-20.73L132.85-20.73 130.66-26.66Q132.29-27.25 134.16-27.73 136.03-28.22 137.98-28.58 139.93-28.93 141.89-29.13 143.84-29.32 145.67-29.32L145.67-29.32Q153.75-29.32 157.68-25.2 161.61-21.07 161.61-12.55L161.61-12.55 161.61 0 154.39 0 154.39-2.71Q153.26-2.05 151.93-1.46 150.6-0.88 149.04-0.44 147.48 0 145.68 0.26 143.89 0.51 141.89 0.51L141.89 0.51Q138.52 0.51 135.97-0.22 133.42-0.95 131.71-2.25 130-3.54 129.13-5.29 128.26-7.03 128.26-9.08ZM135.88-9.33L135.88-9.33Q135.88-8.62 136.25-7.97 136.61-7.32 137.42-6.82 138.22-6.32 139.48-6.02 140.74-5.71 142.52-5.71L142.52-5.71Q144.43-5.71 146.21-6.05 147.99-6.4 149.53-6.96 151.07-7.52 152.31-8.25 153.56-8.98 154.39-9.77L154.39-9.77 154.39-11.04Q152.73-11.5 151.1-11.82 149.48-12.13 148-12.32 146.53-12.5 145.22-12.57 143.91-12.65 142.94-12.65L142.94-12.65Q140.91-12.65 139.57-12.38 138.22-12.11 137.39-11.66 136.56-11.21 136.22-10.6 135.88-9.99 135.88-9.33Z" opacity="1" transform="matrix(1,0,0,1,0,0)" fill="#cf7650" class="wordmark-text-0" data-fill-palette-color="primary" id="text-0"></path></svg></g></svg></g></svg></g></svg></g></svg></g></svg></g></svg></g><path d="M194.822 86.138L194.822 27.943 386.137 27.943 386.137 219.257 194.822 219.257 194.822 161.062 200.497 161.062 200.497 213.583 380.462 213.583 380.462 33.617 200.497 33.617 200.497 86.138Z" fill="#cf7650" stroke="transparent" data-fill-palette-color="tertiary"></path></svg></g><defs></defs></svg><rect width="395.52" height="247.2" fill="none" stroke="none" visibility="hidden"></rect></g></svg></g></svg>